<svg width="24" height="24" viewBox="0 0 24 24" fill="none" xmlns="http://www.w3.org/2000/svg">
<path d="M19.3415 5.2192L18.7099 4.21841C18.3601 3.66434 18.1852 3.38731 17.9562 3.36169C17.727 3.33608 17.4713 3.59899 16.9597 4.12479C15.3065 5.8242 13.6532 5.57314 11.9999 8.62884C10.3467 5.57314 8.69343 5.8242 7.04017 4.12479C6.52863 3.59899 6.27287 3.33608 6.04377 3.36169C5.81467 3.38731 5.6398 3.66434 5.29007 4.21841L4.65836 5.2192C4.41429 5.60586 4.29225 5.79919 4.32526 6.00267C4.35826 6.20615 4.53426 6.34557 4.88626 6.62439L10.8215 11.3258C11.3888 11.7752 11.6726 12 11.9999 12C12.3273 12 12.6111 11.7752 13.1784 11.3258L19.1136 6.62439C19.4657 6.34557 19.6416 6.20615 19.6747 6.00267C19.7076 5.79919 19.5856 5.60586 19.3415 5.2192Z" stroke="white" stroke-width="1.44" stroke-linecap="round" stroke-linejoin="round"/>
<path d="M21.6 8.16003L6.24002 19.68V15.1722M2.40002 8.16003L17.76 19.68V15.1722" stroke="white" stroke-width="1.44" stroke-linecap="round" stroke-linejoin="round"/>
</svg>
