<svg width="17" height="18" viewBox="0 0 17 18" fill="none" xmlns="http://www.w3.org/2000/svg">
<path d="M1.41895 0.699219C1.79145 0.448318 2.27072 0.411883 3.13672 0.720703C4.0123 1.033 5.14065 1.64599 6.71484 2.50391L10.3848 4.50488C12.2752 5.53518 13.641 6.28016 14.541 6.96484C15.436 7.64569 15.75 8.17682 15.75 8.75C15.75 9.32318 15.436 9.85431 14.541 10.5352C13.641 11.2198 12.2752 11.9648 10.3848 12.9951L6.71484 14.9961C5.14065 15.854 4.0123 16.467 3.13672 16.7793C2.27072 17.0881 1.79145 17.0517 1.41895 16.8008C1.03121 16.5395 0.774545 16.0563 0.637695 15.0518C0.501008 14.0482 0.5 12.6651 0.5 10.751V6.74902C0.5 4.83491 0.501012 3.45182 0.637695 2.44824C0.774547 1.44365 1.03125 0.960401 1.41895 0.699219Z" fill="#6AB1C1" stroke="#121212"/>
</svg>
